<svg xmlns="http://www.w3.org/2000/svg" viewBox="0 0 245 240">
  <path d="M104.4 104.4c-5.7 0-10.2 4.9-10.2 11s4.6 11 10.2 11c5.7 0 10.2-4.9 10.2-11s-4.5-11-10.2-11zm36.2 0c-5.7 0-10.2 4.9-10.2 11s4.6 11 10.2 11c5.7 0 10.2-4.9 10.2-11s-4.5-11-10.2-11z" fill="currentColor"></path>
  <path d="M189.5 20h-134C24.6 20 0 44.6 0 75.4v89.2C0 195.4 24.6 220 55.5 220h112.4l-5.3-18.5 12.8 11.9 12.1 11.1 21.6 19V75.4C209 44.6 184.4 20 153.5 20zm-35.8 131.5s-3.4-4.1-6.2-7.8c12.3-3.5 17-11.1 17-11.1-3.9 2.6-7.6 4.4-11 5.6-4.8 2-9.4 3.3-13.9 4.1-9.2 1.7-17.6 1.2-24.8-.1-5.5-1-10.3-2.5-14.2-4.1-2.2-1-4.5-2.2-6.9-3.8-.3-.2-.6-.4-.9-.6-.2-.1-.3-.2-.4-.3-.4-.3-.6-.5-.9-.8-.4-.3-.7-.6-1.1-.9-.4-.4-.9-.9-1.3-1.4-.8-.9-1.5-1.8-2.1-2.7-.5-.8-1-1.5-1.4-2.3 0 0 4.6 7.6 16.8 11.1-2.9 3.7-6.5 8.1-6.5 8.1-21.5-.7-29.7-14.9-29.7-14.9 0-31.6 14.1-57.2 14.1-57.2 14.1-10.5 27.5-10.2 27.5-10.2l1 1.2c-17.6 5.1-25.7 13-25.7 13s2.1-1.1 5.7-2.5c10.3-4.4 18.6-5.6 22-5.9.6-.1 1.1-.2 1.6-.2 5.8-.8 11.6-.8 17.3-.2 8.1.1 16.7.9 25.3 3.5 12 3.7 24.8 9.3 37.3 22.2 0 0-7.8-7.4-25.4-12.6l1.4-1.6s13.4-.3 27.5 10.2c0 0 14.1 25.6 14.1 57.2 0 0-8.3 14.2-29.9 14.9z" fill="currentColor"></path>
</svg>
